PathFileType	4	(X/Y/Z)	pose_F01_0-96.trc
DataRate	CameraRate	NumFrames	NumMarkers	Units	OrigDataRate	OrigDataStartFrame	OrigNumFrames
30	30	7	21	m	30	84	96
Frame#	Time	CHip			RHip			RKnee			RAnkle			RBigToe			RSmallToe			RHeel			LHip			LKnee			LAnkle			LBigToe			LSmallToe			LHeel			Neck			Nose			RShoulder			RElbow			RWrist			LShoulder			LElbow			LWrist			
		X1	Y1	Z1	X2	Y2	Z2	X3	Y3	Z3	X4	Y4	Z4	X5	Y5	Z5	X6	Y6	Z6	X7	Y7	Z7	X8	Y8	Z8	X9	Y9	Z9	X10	Y10	Z10	X11	Y11	Z11	X12	Y12	Z12	X13	Y13	Z13	X14	Y14	Z14	X15	Y15	Z15	X16	Y16	Z16	X17	Y17	Z17	X18	Y18	Z18	X19	Y19	Z19	X20	Y20	Z20	X21	Y21	Z21	
84	2.8	-0.11646018345495988	1.8739447578761739	-0.4440896624354438	-0.12380620344868475	1.8705379776913937	-0.3851897002065307	-0.12010513228207366	1.7440747683810398	-0.33091689412268854	-0.13135981383018244	1.615128714110748	-0.3517621645055419							-0.12312533516857899	1.621005938097828	-0.315362999972652	-0.10790701234851265	1.8784678228881504	-0.5119794984596943	-0.10868743199856123	1.7430761703283828	-0.4959989325809017	-0.08939522110316499	1.6076092594189435	-0.48539095531159987	-0.12582086112650695	1.577550631096396	-0.4942231546751851	-0.11371181004917537	1.5818479885187149	-0.5168799051885298	-0.07768028748491942	1.5968801800514576	-0.47030016435448047	-0.11585056677071735	2.0239353621253526	-0.45020022112058805	-0.14451423338913197	2.0851237864115157	-0.44136964569405346	-0.12624950740322397	2.013495114773172	-0.3669267765624388	-0.14306399186913427	1.94281501396687	-0.34374196673856316	-0.19454128534168078	1.9359441019924375	-0.4009892319132698	-0.10375038388694317	2.031492747529699	-0.5330389331014989	-0.08665218714956303	1.9612356108423035	-0.5627714429204879	-0.10342644374959586	1.8887450068944394	-0.588426700015477
85	2.8333333333333335	-0.11410699185018836	1.8732126943295706	-0.4643955901959627	-0.1218519756807861	1.870990159005717	-0.39666818890147554	-0.12140421297974123	1.7415077423234702	-0.3337930398248327	-0.13135981383018244	1.615128714110748	-0.3517621645055419							-0.12312533516857899	1.621005938097828	-0.315362999972652	-0.10454612031144193	1.8773157797842215	-0.5199480692390084	-0.10774189044764128	1.7419207504475112	-0.5014621082864567	-0.08965647979780084	1.609686979041903	-0.4900143243104071	-0.12344734195941927	1.5789730739659626	-0.4972147673769908	-0.10961866417928039	1.5822254139580487	-0.5215007050342411	-0.07592237682541389	1.59879293659491	-0.47706672630012653	-0.11641190201035097	2.025178190556209	-0.46244701554762363	-0.14354747117905003	2.08600482305911	-0.4640192782238738	-0.1252039705488474	2.0177856108138945	-0.38214199155322676	-0.13852108893916779	1.9464636393174428	-0.35509837620032453	-0.18730408932519207	1.922287324267168	-0.3743036956133918	-0.10213394715637632	2.0321983292812043	-0.5473188771620041	-0.08666927320528907	1.962105720398263	-0.5843312005969673	-0.09981044443847516	1.8927861932474346	-0.5972312842486419
86	2.8666666666666667	-0.1116121998188812	1.8763213012682005	-0.47621501594308435	-0.12230641315887492	1.874687753964471	-0.41868800788452515	-0.11956636359661998	1.7490626899489388	-0.3418068563979931	-0.13135981383018244	1.615128714110748	-0.3517621645055419							-0.12312533516857899	1.621005938097828	-0.315362999972652	-0.10099574631465233	1.8809771344908655	-0.5375924142617964	-0.11068967190326523	1.7465345829310133	-0.5162307872740466	-0.08974586551782637	1.609809981308545	-0.4900712662123022	-0.12355038152860658	1.579266230447851	-0.4972199139084355	-0.11029780012028875	1.583590664264692	-0.5254573985817936	-0.07861457656046275	1.5997804612277404	-0.4740113772821168	-0.1141566999257906	2.0263020664345515	-0.48238253395629405	-0.14232456433929327	2.0890586856373767	-0.47864889312797887	-0.12801209701540828	2.018408176039263	-0.4010148227887347	-0.14335856270562422	1.944803476500635	-0.37148418549421147	-0.19457315804696837	1.9070582047051172	-0.3945553550412608	-0.09855741135359357	2.032650391353622	-0.5641532008900791	-0.07905121735313131	1.9562952377539773	-0.5955711808088854	-0.09544505289873939	1.8856199569254966	-0.6098667934752954
87	2.9	-0.11137855523949863	1.8768443577124574	-0.4854030837000589	-0.12211673059337827	1.873237702196403	-0.4274839373609851	-0.12319240180213918	1.7418959625742738	-0.3505875459128116	-0.13135981383018244	1.615128714110748	-0.3517621645055419							-0.12312533516857899	1.621005938097828	-0.315362999972652	-0.10008273980461048	1.8798720898193857	-0.5553761777351301	-0.11067903625466805	1.7426630873188043	-0.524376217411922	-0.0882610703276152	1.6075894602888654	-0.4910976590928794	-0.12446959138241342	1.5792659100077162	-0.5006059018359977	-0.11255494621228795	1.5821397283113945	-0.5226804092282837	-0.07681004575533715	1.5986644764885065	-0.4756527756393488	-0.11280773482985765	2.028073573265213	-0.496791589368869	-0.144909116101203	2.0895147497628868	-0.49608338372282273	-0.12691099810512	2.021199361192987	-0.4152933947360109	-0.1469625076298462	1.9467093407788691	-0.3936325241527992	-0.19120149096514405	1.8831271873417548	-0.40620212553760876	-0.09769315520824204	2.0345276512702357	-0.5814397715233903	-0.07816680833730756	1.9594139405884972	-0.6045375810903186	-0.08570252311680329	1.8926784781380206	-0.6291169671577092
88	2.933333333333333	-0.11412197810174896	1.8822626152292965	-0.5055800940873045	-0.12448116403949795	1.8780778692974451	-0.4445060097278179	-0.1264035159385104	1.741738619263202	-0.360771140827686	-0.13135981383018244	1.615128714110748	-0.3517621645055419							-0.12312533516857899	1.621005938097828	-0.315362999972652	-0.09710801096111137	1.8840083862520027	-0.5642217383707072	-0.10888354409427588	1.741979482689053	-0.526745571343495	-0.09026027943957765	1.607741998666719	-0.48881472039534885	-0.12451816003407064	1.5791232829990536	-0.500624844124604	-0.11261465383985868	1.5822496918202709	-0.5226113107266269	-0.07606954287652891	1.5989216575223686	-0.4723395611011494	-0.11250129663646452	2.0281592219806983	-0.5056150029796007	-0.14453831233761025	2.092758290395027	-0.5053153009785852	-0.12980097822362904	2.0204650451426973	-0.4253142651243823	-0.14992245095587106	1.94464786582922	-0.4032802143036872	-0.17783951953995267	1.8770626608376544	-0.39438621398284157	-0.0943134564838686	2.034770671209455	-0.589549130487908	-0.07736817665643442	1.957204391732154	-0.6220653998827612	-0.08671420390859122	1.8853696786807423	-0.6404811544126796
89	2.966666666666667	-0.11298575213057517	1.8822895624182894	-0.5113558870448369	-0.12703314406734084	1.8794254593917274	-0.4548454083910589	-0.12821413196255996	1.7428938511908791	-0.36821932744514957	-0.13135981383018244	1.615128714110748	-0.3517621645055419							-0.12312533516857899	1.621005938097828	-0.315362999972652	-0.09797658577269275	1.8854245644938699	-0.5679607609670595	-0.10788700223315963	1.741016529136493	-0.5319568948210375	-0.08855486966625695	1.6063769807280668	-0.4905344117225307	-0.12352031185022015	1.578994722256371	-0.4971650545884518	-0.11170827821144466	1.582199532588528	-0.5192218316629721	-0.07712381498482693	1.5974144879908365	-0.47505368959879013	-0.1147978398631075	2.028747065378692	-0.5240106530083362	-0.14340667267808752	2.090610226603676	-0.5186911590881021	-0.13331790881818129	2.022601599334969	-0.4384577135798267	-0.14729054417907217	1.9448789178766999	-0.41152321121702656	-0.1680095774559078	1.8752761928739201	-0.38707015991370464	-0.09256080587326118	2.035205294940903	-0.6037374808432469	-0.07811370354253662	1.9572846292666564	-0.6255401807708041	-0.080120461144289	1.8870370479301521	-0.6480014623796679
90	3.0	-0.11164214675815495	1.8800278079791222	-0.5167261511604041	-0.12595502724131277	1.8756158893007824	-0.4597954061281106	-0.13398736604372063	1.7421502915815488	-0.37993314757232755	-0.13135981383018244	1.615128714110748	-0.3517621645055419							-0.12312533516857899	1.621005938097828	-0.315362999972652	-0.09894969790696355	1.88228508356445	-0.5828410097204281	-0.10739018084738872	1.743154730921312	-0.5328532325898555	-0.08820234316395502	1.6073555323391924	-0.4912036190151735	-0.12456807800259356	1.5795201665809946	-0.500736780680108	-0.11256975349535178	1.5822273792720838	-0.522690953663632	-0.07658250383305724	1.5998239518373665	-0.4762825222738875	-0.11455602191420042	2.0292964978009915	-0.5327224604464693	-0.14490313565192978	2.093765771612074	-0.5340887629925926	-0.13238380966229418	2.022920658126435	-0.44410286635196894	-0.14338506903026185	1.942626954082235	-0.4156526355199915	-0.15824596704433536	1.8727434761788722	-0.3895464086797203	-0.09573557022772505	2.0356628384365156	-0.6165579406110753	-0.07455387548440259	1.9588755122499482	-0.6336894225441264	-0.07649439777216907	1.887147353343536	-0.6560725498850676
